#!OML:ASF X:\für Bonn\!DataBase\2005_08_12_Daniel\c3d\Daniel.ASF
:FULLY-SPECIFIED
:DEGREES
1450
root -3.86711 18.9877 -2.20443 -112.153 -81.6667 109.349
lowerback 12.7469 0.068171 -3.9073
upperback 4.60328 -0.755709 -3.32971
thorax -2.31441 -0.489433 -1.15476
lowerneck -6.88426 1.54851 -0.797465
upperneck 4.48209 2.26762 -2.20169
head 2.63706 1.03346 -0.468939
rclavicle -1.26228e-014 -2.36554e-014
rhumerus -13.0853 28.7942 -79.217
rradius 71.6271
rwrist -23.9705
rhand -29.0276 33.9389
rfingers 7.12502
rthumb -2.37838 3.97242
lclavicle -1.26228e-014 -2.36554e-014
lhumerus -61.426 -21.2175 93.1428
lradius 80.6367
lwrist 42.2322
lhand -14.2927 -6.15755
lfingers 7.12502
lthumb 11.8468 23.4873
rfemur -18.5708 14.2419 10.8792
rtibia 35.0592
rfoot -8.13297 -16.0099
rtoes -11.8353
lfemur -4.34679 -13.8678 -28.5286
ltibia 33.0292
lfoot -8.06806 10.6509
ltoes 2.35085
1451
root -3.82912 19.0245 -2.21047 -115.5 -81.6006 112.257
lowerback 13.5301 0.753842 -3.7204
upperback 4.8073 0.104525 -3.4479
thorax -2.52955 -0.0695478 -1.51454
lowerneck -6.86833 1.17103 -1.06062
upperneck 4.34078 1.75624 -1.68963
head 2.57329 0.794708 -0.281903
rclavicle -9.34288e-015 -3.56818e-014
rhumerus -10.0254 27.9997 -77.0033
rradius 70.3255
rwrist -25.0092
rhand -28.7459 34.2336
rfingers 7.12502
rthumb -2.10628 4.26422
lclavicle -9.34288e-015 -3.56818e-014
lhumerus -63.6031 -22.5165 93.5743
lradius 80.7945
lwrist 41.4965
lhand -14.6245 -5.73462
lfingers 7.12502
lthumb 11.5269 23.9284
rfemur -17.1262 11.9011 11.6529
rtibia 35.9736
rfoot -6.30527 -14.4057
rtoes -12.1471
lfemur -5.79636 -14.0154 -28.3068
ltibia 33.3806
lfoot -7.98125 11.1447
ltoes 1.86214
1452
root -3.79096 19.0509 -2.22086 -118.199 -81.6717 114.44
lowerback 14.4033 1.37162 -3.46764
upperback 5.00703 0.882624 -3.49386
thorax -2.78484 0.309408 -1.84201
lowerneck -6.77308 0.80311 -1.31019
upperneck 4.15992 1.25892 -1.24984
head 2.48759 0.560746 -0.120249
rclavicle -5.8393e-015 -1.59028e-015
rhumerus -7.0802 27.0353 -74.9096
rradius 68.9082
rwrist -25.922
rhand -28.5662 34.5334
rfingers 7.12502
rthumb -1.93277 4.56242
lclavicle -5.8393e-015 -1.59028e-015
lhumerus -65.5796 -23.413 93.8881
lradius 80.7724
lwrist 40.7123
lhand -14.7678 -5.27178
lfingers 7.12502
lthumb 11.3887 24.3989
rfemur -15.4276 9.90654 12.4123
rtibia 36.7034
rfoot -4.75896 -13.0126
rtoes -12.6866
lfemur -7.19087 -14.0417 -27.9245
ltibia 33.809
lfoot -7.68128 11.4378
ltoes 1.6142
1453
root -3.75462 19.0679 -2.2348 -120.347 -81.9561 116.039
lowerback 15.3025 1.9063 -3.01018
upperback 5.22 1.58523 -3.50161
thorax -3.02393 0.650922 -2.24952
lowerneck -6.73897 0.437929 -1.55658
upperneck 4.04048 0.76695 -0.792637
head 2.43847 0.328631 0.0472338
rclavicle 5.11871e-015 -3.75703e-014
rhumerus -4.24132 25.8515 -72.9816
rradius 67.4199
rwrist -26.7346
rhand -28.5 34.7745
rfingers 7.12502
rthumb -1.8688 4.80293
lclavicle 5.11871e-015 -3.75703e-014
lhumerus -67.5779 -24.3318 94.1628
lradius 80.874
lwrist 40.2038
lhand -14.9632 -4.91259
lfingers 7.12502
lthumb 11.2002 24.7685
rfemur -13.5099 8.2336 13.2331
rtibia 37.2386
rfoot -3.87274 -12.0074
rtoes -13.0803
lfemur -8.55198 -14.0603 -27.3399
ltibia 34.2888
lfoot -7.18856 11.5211
ltoes 1.33685
1454
root -3.72098 19.0737 -2.25322 -121.859 -82.4754 117.022
lowerback 16.1641 2.34418 -2.39899
upperback 5.42937 2.20013 -3.42911
thorax -3.23018 0.949796 -2.65675
lowerneck -6.69322 0.0779169 -1.76831
upperneck 3.90461 0.282121 -0.397218
head 2.38631 0.0982557 0.189469
rclavicle -9.24349e-015 2.10712e-014
rhumerus -1.59832 24.5742 -71.1237
rradius 66.0335
rwrist -27.5932
rhand -28.4766 34.7699
rfingers 7.12502
rthumb -1.84621 4.79814
lclavicle -9.24349e-015 2.10712e-014
lhumerus -69.5427 -25.1952 94.4386
lradius 81.0527
lwrist 39.9414
lhand -15.0302 -4.71434
lfingers 7.12502
lthumb 11.1357 24.9702
rfemur -11.4475 6.63917 14.1481
rtibia 37.5803
rfoot -3.49932 -11.46
rtoes -12.9781
lfemur -9.94886 -14.0774 -26.5275
ltibia 34.7898
lfoot -6.55168 11.3486
ltoes 0.702393
1455
root -3.6922 19.0689 -2.2764 -122.286 -83.1401 116.929
lowerback 16.9714 2.69826 -1.73202
upperback 5.63064 2.73047 -3.31021
thorax -3.40306 1.20719 -3.03963
lowerneck -6.58734 -0.285142 -1.96891
upperneck 3.74592 -0.205957 -0.0574508
head 2.31919 -0.13562 0.312117
rclavicle -2.23136e-014 -2.78299e-015
rhumerus 0.742243 23.275 -69.3221
rradius 64.8868
rwrist -28.5574
rhand -28.4383 34.443
rfingers 7.12502
rthumb -1.80927 4.47091
lclavicle -2.23136e-014 -2.78299e-015
lhumerus -71.4669 -26.0213 94.7128
lradius 81.3266
lwrist 39.9108
lhand -15.1385 -4.7231
lfingers 7.12502
lthumb 11.0312 24.967
rfemur -9.20343 5.06542 15.0568
rtibia 37.7428
rfoot -3.65602 -11.2991
rtoes -13.004
lfemur -11.3359 -14.1247 -25.6296
ltibia 35.2656
lfoot -5.86088 10.9346
ltoes 0.0661824
1456
root -3.66853 19.0519 -2.30302 -120.793 -83.835 115.006
lowerback 17.6264 2.98814 -1.13132
upperback 5.81976 3.18267 -3.19523
thorax -3.50182 1.42677 -3.37451
lowerneck -6.53676 -0.641493 -2.09072
upperneck 3.64027 -0.687257 0.230144
head 2.28238 -0.367368 0.405378
rclavicle -4.87022e-015 -6.55989e-015
rhumerus 2.81909 21.8875 -67.6283
rradius 63.8717
rwrist -29.469
rhand -28.4557 33.8309
rfingers 7.12502
rthumb -1.82607 3.85902
lclavicle -4.87022e-015 -6.55989e-015
lhumerus -73.2775 -26.8241 94.9504
lradius 81.684
lwrist 40.0906
lhand -15.1395 -5.00134
lfingers 7.12502
lthumb 11.0302 24.6889
rfemur -6.90659 3.40326 15.7885
rtibia 37.7553
rfoot -4.2252 -11.318
rtoes -13.2147
lfemur -12.789 -14.2352 -24.7937
ltibia 35.6897
lfoot -5.10697 10.3489
ltoes -0.413657
1457
root -3.65018 19.0243 -2.33336 -116.833 -84.5269 110.717
lowerback 18.0767 3.22145 -0.637492
upperback 6.03486 3.55777 -3.06758
thorax -3.46719 1.60994 -3.6117
lowerneck -6.63371 -1.00027 -2.11964
upperneck 3.56795 -1.17163 0.428536
head 2.28451 -0.602415 0.453998
rclavicle -3.78188e-014 -2.98177e-015
rhumerus 4.80685 20.3205 -66.0711
rradius 62.814
rwrist -30.3513
rhand -28.2962 33.0604
rfingers 7.12502
rthumb -1.67199 3.08718
lclavicle -3.78188e-014 -2.98177e-015
lhumerus -74.8106 -27.5485 95.1186
lradius 82.0244
lwrist 40.3006
lhand -15.0596 -5.52139
lfingers 7.12502
lthumb 11.1073 24.1647
rfemur -4.62168 1.77071 16.3694
rtibia 37.6389
rfoot -5.05774 -11.4672
rtoes -13.6244
lfemur -14.3319 -14.316 -24.0202
ltibia 36.0496
lfoot -4.19943 9.60138
ltoes -0.677414
1458
root -3.63725 18.9851 -2.36579 -110.223 -85.1902 103.834
lowerback 18.5139 3.41197 -0.172818
upperback 6.13976 3.88054 -2.94316
thorax -3.54178 1.76868 -3.83129
lowerneck -6.63293 -1.35077 -2.02945
upperneck 3.56516 -1.65266 0.534385
head 2.29031 -0.837269 0.452741
rclavicle -1.86858e-014 7.55382e-015
rhumerus 6.38586 18.6598 -64.7435
rradius 61.7733
rwrist -31.1646
rhand -28.0946 32.312
rfingers 7.12502
rthumb -1.47728 2.33734
lclavicle -1.86858e-014 7.55382e-015
lhumerus -76.3664 -28.2613 95.3227
lradius 82.3794
lwrist 40.6414
lhand -14.8933 -6.22711
lfingers 7.12502
lthumb 11.2677 23.4503
rfemur -2.37085 -0.053304 16.8054
rtibia 37.4037
rfoot -5.66406 -11.6077
rtoes -14.3993
lfemur -15.9105 -14.3937 -23.3011
ltibia 36.3895
lfoot -3.13002 8.75278
ltoes -0.858119
1459
root -3.62924 18.9338 -2.39785 -100.212 -85.743 93.567
lowerback 18.8819 3.56038 0.243007
upperback 6.23832 4.14605 -2.81787
thorax -3.58973 1.89971 -4.00826
lowerneck -6.71806 -1.68397 -1.81393
upperneck 3.63876 -2.11659 0.572983
head 2.33433 -1.06392 0.408258
rclavicle 2.78299e-014 -3.51849e-014
rhumerus 7.82309 16.9849 -63.4719
rradius 60.7103
rwrist -31.9331
rhand -27.8635 31.5923
rfingers 7.12502
rthumb -1.25407 1.61624
lclavicle 2.78299e-014 -3.51849e-014
lhumerus -77.6636 -28.6247 95.2496
lradius 82.587
lwrist 40.619
lhand -14.4452 -7.07043
lfingers 7.12502
lthumb 11.6998 22.5829
rfemur -0.0910483 -2.04363 17.0828
rtibia 37.0517
rfoot -5.94766 -11.7359
rtoes -15.4648
lfemur -17.4288 -14.4283 -22.6846
ltibia 36.7274
lfoot -1.95082 7.80813
ltoes -0.994104
1460
root -3.62576 18.8669 -2.43157 -86.7971 -86.099 79.9431
lowerback 19.1555 3.68615 0.601912
upperback 6.32859 4.37943 -2.66771
thorax -3.60299 2.01589 -4.11481
lowerneck -6.84773 -2.02355 -1.60546
upperneck 3.73766 -2.58586 0.563056
head 2.39354 -1.29465 0.348122
rclavicle 2.95692e-014 -1.47101e-014
rhumerus 9.21247 15.3034 -62.2405
rradius 59.5335
rwrist -32.6882
rhand -27.6204 31.0669
rfingers 7.12502
rthumb -1.01925 1.08957
lclavicle 2.95692e-014 -1.47101e-014
lhumerus -78.6808 -28.6689 94.9579
lradius 82.7101
lwrist 40.3247
lhand -13.8328 -7.87495
lfingers 7.12502
lthumb 12.2904 21.7439
rfemur 2.24859 -3.96672 17.2614
rtibia 36.5322
rfoot -6.03086 -11.8511
rtoes -16.3503
lfemur -18.9541 -14.4095 -22.1263
ltibia 37.0737
lfoot -0.663977 6.80567
ltoes -1.1426
1461
root -3.62581 18.7861 -2.46477 -71.695 -86.1234 64.6646
lowerback 19.3804 3.80361 0.868426
upperback 6.39514 4.58753 -2.53514
thorax -3.62226 2.11952 -4.18096
lowerneck -7.04541 -2.35617 -1.32634
upperneck 3.90811 -3.05131 0.533011
head 2.48657 -1.52266 0.267413
rclavicle 3.46382e-014 -6.55989e-015
rhumerus 10.4947 13.6494 -61.0653
rradius 58.297
rwrist -33.3549
rhand -27.454 30.7896
rfingers 7.12502
rthumb -0.858551 0.811552
lclavicle 3.46382e-014 -6.55989e-015
lhumerus -79.675 -28.7236 94.6653
lradius 83.0482
lwrist 40.059
lhand -13.3355 -8.33038
lfingers 7.12502
lthumb 12.7698 21.2591
rfemur 4.64824 -5.65354 17.3113
rtibia 35.8556
rfoot -5.95642 -11.9155
rtoes -16.4025
lfemur -20.4897 -14.2378 -21.691
ltibia 37.4062
lfoot 0.764254 5.73574
ltoes -1.51141
1462
root -3.63307 18.6996 -2.49868 -57.4166 -85.9072 50.265
lowerback 19.4596 3.91484 1.10944
upperback 6.44327 4.78976 -2.38264
thorax -3.58934 2.22252 -4.20042
lowerneck -7.2808 -2.6848 -1.07207
upperneck 4.12433 -3.51073 0.509197
head 2.60154 -1.7473 0.190854
rclavicle 1.94312e-014 1.59028e-014
rhumerus 11.6887 12.0353 -59.9704
rradius 57.0226
rwrist -33.9512
rhand -27.3756 30.6772
rfingers 7.12502
rthumb -0.782821 0.698936
lclavicle 1.94312e-014 1.59028e-014
lhumerus -80.6367 -28.7035 94.3906
lradius 83.5616
lwrist 39.7578
lhand -12.9944 -8.4129
lfingers 7.12502
lthumb 13.0986 21.1557
rfemur 7.09888 -6.91626 17.4597
rtibia 34.9918
rfoot -5.8393 -12.1543
rtoes -15.5659
lfemur -21.9953 -13.9019 -21.2811
ltibia 37.7131
lfoot 2.33831 4.63
ltoes -1.88566
1463
root -3.64345 18.5993 -2.53105 -45.8131 -85.4715 38.6179
lowerback 19.3852 4.03472 1.28167
upperback 6.48778 4.99365 -2.23131
thorax -3.48639 2.32857 -4.1707
lowerneck -7.50172 -3.00377 -0.771178
upperneck 4.33362 -3.96196 0.454252
head 2.70874 -1.96758 0.0952578
rclavicle -6.31887e-014 4.62174e-014
rhumerus 12.8688 10.3785 -58.9989
rradius 55.6132
rwrist -34.3817
rhand -27.3107 30.8076
rfingers 7.12502
rthumb -0.720174 0.829026
lclavicle -6.31887e-014 4.62174e-014
lhumerus -81.5262 -28.6296 94.1123
lradius 84.256
lwrist 39.4362
lhand -12.8423 -8.06702
lfingers 7.12502
lthumb 13.2452 21.4922
rfemur 9.49061 -7.81561 17.6744
rtibia 33.9849
rfoot -5.69459 -12.5877
rtoes -13.9184
lfemur -23.5037 -13.4938 -20.9445
ltibia 37.9966
lfoot 3.97386 3.61009
ltoes -1.99584
